<svg width="28" height="28" viewBox="0 0 28 28" fill="none" xmlns="http://www.w3.org/2000/svg">
<path d="M13.7788 23.7399C15.7435 24.8667 17.3478 25.4107 18.974 25.7388C21.3792 26.224 23.7287 25.1137 25.2278 23.2743C25.8614 22.4969 25.6449 21.6058 24.8202 21.1461L22.9584 20.1083C21.4826 19.2857 20.7447 18.8744 19.9625 18.956C19.1802 19.0376 18.543 19.5923 17.2687 20.7016L13.7788 23.7399Z" fill="#8A0089"/>
<path d="M1.93886 8.7036C2.2669 10.3298 2.81096 11.9341 3.93772 13.8989L6.97602 10.4089C8.08539 9.13462 8.64008 8.49748 8.72166 7.71519C8.80324 6.9329 8.39194 6.19503 7.56935 4.71928L6.53155 2.85743C6.07185 2.03273 5.18071 1.81625 4.40333 2.44985C2.56399 3.94899 1.45368 6.29844 1.93886 8.7036Z" fill="#8A0089"/>
<path d="M3.93772 13.8989C2.81096 11.9341 2.2669 10.3298 1.93886 8.7036C1.45368 6.29844 2.56399 3.94899 4.40333 2.44985C5.18071 1.81625 6.07185 2.03273 6.53155 2.85743L7.56935 4.71928C8.39194 6.19503 8.80324 6.9329 8.72166 7.71519C8.64008 8.49748 8.08539 9.13462 6.97602 10.4089L3.93772 13.8989ZM3.93772 13.8989C6.21837 17.8756 9.79744 21.4566 13.7788 23.7399M13.7788 23.7399C15.7435 24.8667 17.3478 25.4107 18.974 25.7388C21.3792 26.224 23.7287 25.1137 25.2278 23.2743C25.8614 22.4969 25.6449 21.6058 24.8202 21.1461L22.9584 20.1083C21.4826 19.2857 20.7447 18.8744 19.9625 18.956C19.1802 19.0376 18.543 19.5923 17.2687 20.7016L13.7788 23.7399Z" stroke="#8A0089" stroke-width="3.65702" stroke-linejoin="round"/>
<path d="M16.0874 7.82485C17.779 8.54318 19.1346 9.89874 19.8529 11.5903M16.8647 2.08203C21.0688 3.29524 24.3823 6.60859 25.5957 10.8126" stroke="#8A0089" stroke-width="2.92562" stroke-linecap="round"/>
</svg>
