<svg width="196" height="196" viewBox="0 0 196 196" fill="none" xmlns="http://www.w3.org/2000/svg">
<path d="M193.745 103.893L193.738 103.905C192.816 105.317 192.239 106.926 192.052 108.601C191.865 110.277 192.073 111.973 192.66 113.554C193.392 115.519 193.534 117.654 193.07 119.698C192.605 121.743 191.555 123.607 190.047 125.063L190.04 125.07C188.828 126.239 187.908 127.676 187.352 129.265C186.796 130.854 186.621 132.552 186.84 134.221V134.231C187.111 136.31 186.771 138.422 185.86 140.31C184.95 142.198 183.508 143.78 181.713 144.861C180.269 145.731 179.049 146.927 178.151 148.353C177.253 149.78 176.703 151.397 176.543 153.076V153.085C176.345 155.17 175.544 157.152 174.237 158.788C172.931 160.425 171.176 161.646 169.186 162.301H169.18C167.578 162.828 166.122 163.724 164.929 164.916C163.736 166.109 162.84 167.565 162.313 169.166V169.173C161.658 171.163 160.437 172.918 158.801 174.225C157.164 175.532 155.182 176.334 153.097 176.532H153.088C151.409 176.692 149.792 177.242 148.365 178.14C146.939 179.038 145.743 180.258 144.873 181.702C143.791 183.498 142.21 184.939 140.322 185.85C138.434 186.761 136.321 187.101 134.242 186.829H134.233C132.564 186.61 130.866 186.786 129.277 187.342C127.688 187.897 126.251 188.818 125.082 190.029L125.075 190.036C123.619 191.544 121.754 192.594 119.71 193.059C117.666 193.523 115.531 193.381 113.566 192.649C111.986 192.062 110.289 191.853 108.613 192.04C106.937 192.227 105.329 192.805 103.917 193.727L103.905 193.735C102.153 194.88 100.105 195.489 98.0125 195.489C95.9197 195.489 93.8723 194.88 92.1205 193.735L92.108 193.727C90.6958 192.805 89.0873 192.228 87.4116 192.041C85.7359 191.854 84.0397 192.062 82.4591 192.649C80.4945 193.381 78.3591 193.523 76.3148 193.059C74.2705 192.595 72.4061 191.544 70.95 190.036L70.9432 190.029C69.7741 188.817 68.3373 187.897 66.748 187.341C65.1588 186.785 63.4614 186.61 61.7921 186.829H61.7819C59.7034 187.101 57.5909 186.76 55.7029 185.85C53.8149 184.939 52.2335 183.497 51.1523 181.702C50.2826 180.258 49.0863 179.038 47.6596 178.14C46.233 177.242 44.6156 176.692 42.9375 176.532H42.9285C40.8435 176.334 38.8615 175.533 37.2248 174.227C35.588 172.92 34.3675 171.165 33.7125 169.176V169.169C33.1852 167.567 32.2892 166.111 31.0967 164.918C29.9043 163.726 28.4485 162.829 26.8466 162.302H26.8398C24.8503 161.647 23.0948 160.426 21.7878 158.79C20.4809 157.153 19.6792 155.171 19.4807 153.086V153.077C19.3214 151.399 18.7707 149.781 17.8729 148.355C16.9752 146.928 15.7553 145.732 14.3114 144.862C12.5155 143.781 11.0739 142.199 10.1632 140.311C9.2525 138.423 8.91226 136.31 9.18414 134.231V134.222C9.40284 132.553 9.22729 130.856 8.67157 129.266C8.11585 127.677 7.19543 126.24 5.98414 125.071L5.97732 125.064C4.46933 123.608 3.41886 121.744 2.95462 119.699C2.49039 117.655 2.63255 115.52 3.36368 113.555C3.95156 111.975 4.16035 110.278 3.97324 108.603C3.78614 106.927 3.20838 105.318 2.28641 103.906L2.27845 103.894C1.13346 102.142 0.523682 100.095 0.523682 98.0017C0.523682 95.9089 1.13346 93.8615 2.27845 92.1097L2.28641 92.0972C3.20416 90.683 3.77761 89.0734 3.96075 87.3975C4.14389 85.7216 3.93161 84.0262 3.34096 82.4472C2.60953 80.4825 2.46721 78.3472 2.93146 76.3029C3.39572 74.2586 4.44636 72.3941 5.95459 70.9381L5.96141 70.9313C7.17292 69.7622 8.09349 68.3253 8.64922 66.7361C9.20496 65.1468 9.38038 63.4494 9.16141 61.7801V61.7699C8.88976 59.6915 9.23012 57.5789 10.1408 55.691C11.0515 53.803 12.4929 52.2216 14.2887 51.1404C15.7326 50.2706 16.9524 49.0744 17.8502 47.6477C18.748 46.221 19.2986 44.6037 19.458 42.9256V42.9165C19.656 40.8316 20.4572 38.8496 21.7638 37.2128C23.0704 35.5761 24.8256 34.3556 26.8148 33.7006H26.8216C28.4236 33.1732 29.8795 32.2773 31.0722 31.0848C32.2648 29.8923 33.161 28.4366 33.6887 26.8347V26.8279C34.3436 24.8384 35.564 23.0828 37.2007 21.7759C38.8374 20.4689 40.8195 19.6672 42.9046 19.4688H42.9137C44.5918 19.3094 46.2091 18.7587 47.6358 17.861C49.0625 16.9632 50.2587 15.7434 51.1285 14.2994C52.2098 12.5035 53.7914 11.0619 55.6795 10.1512C57.5677 9.24054 59.6805 8.9003 61.7591 9.17217H61.7682C63.4375 9.39087 65.1348 9.21532 66.724 8.6596C68.3132 8.10389 69.7501 7.18347 70.9194 5.97217L70.9262 5.96536C72.3824 4.45737 74.2468 3.4069 76.2911 2.94266C78.3353 2.47843 80.4706 2.62058 82.4353 3.35172C84.0157 3.9396 85.7121 4.14839 87.3879 3.96128C89.0637 3.77418 90.6722 3.19641 92.0841 2.27445L92.0966 2.26649C93.8484 1.12149 95.8959 0.511719 97.9887 0.511719C100.081 0.511719 102.129 1.12149 103.881 2.26649L103.893 2.27445C105.305 3.19574 106.914 3.77311 108.59 3.9602C110.265 4.14729 111.962 3.93888 113.542 3.35172C115.507 2.62029 117.642 2.47798 119.686 2.94223C121.731 3.40648 123.595 4.45712 125.051 5.96536L125.058 5.97217C126.227 7.18369 127.664 8.10426 129.253 8.65999C130.842 9.21572 132.54 9.39114 134.209 9.17217H134.219C136.298 8.90053 138.41 9.24088 140.298 10.1516C142.186 11.0622 143.768 12.5037 144.849 14.2994C145.719 15.7434 146.915 16.9632 148.342 17.861C149.768 18.7587 151.386 19.3094 153.064 19.4688H153.073C155.158 19.6667 157.14 20.468 158.776 21.7746C160.413 23.0811 161.634 24.8364 162.289 26.8256V26.8324C162.816 28.4344 163.712 29.8903 164.904 31.0829C166.097 32.2756 167.553 33.1718 169.155 33.6995H169.161C171.151 34.3543 172.906 35.5748 174.213 37.2115C175.52 38.8482 176.322 40.8303 176.52 42.9154V42.9244C176.68 44.6025 177.231 46.2199 178.128 47.6466C179.026 49.0732 180.246 50.2695 181.69 51.1392C183.486 52.2205 184.927 53.8021 185.838 55.6903C186.749 57.5785 187.089 59.6913 186.817 61.7699V61.779C186.598 63.4483 186.774 65.1456 187.33 66.7348C187.885 68.324 188.806 69.7609 190.017 70.9301L190.024 70.937C191.532 72.3931 192.582 74.2576 193.047 76.3018C193.511 78.3461 193.369 80.4814 192.638 82.446C192.05 84.0265 191.841 85.7228 192.028 87.3987C192.215 89.0745 192.793 90.683 193.715 92.0949L193.723 92.1074C194.871 93.8571 195.485 95.9036 195.489 97.9966C195.493 100.09 194.887 102.139 193.745 103.893Z" fill="#EDEDED"/>
<path d="M98.0002 190.843C96.8126 190.844 95.6506 190.498 94.657 189.848L94.5831 189.801C92.5633 188.5 90.2687 187.687 87.8805 187.426C85.4924 187.165 83.0762 187.462 80.8229 188.295C80.142 188.551 79.4207 188.683 78.6933 188.684C77.8719 188.682 77.0591 188.516 76.303 188.195C75.5469 187.874 74.8627 187.405 74.2911 186.815L74.2536 186.777C72.8095 185.298 71.0846 184.121 69.1799 183.317C67.2752 182.512 65.2291 182.096 63.1615 182.093C62.5714 182.093 61.9818 182.127 61.3956 182.195L61.1797 182.222C60.911 182.257 60.6404 182.274 60.3695 182.275C59.3243 182.271 58.2974 182.001 57.3857 181.489C56.4741 180.978 55.7078 180.243 55.1592 179.353L55.1286 179.303C53.889 177.259 52.1938 175.528 50.1751 174.247C48.1563 172.966 45.8688 172.168 43.4911 171.917L43.3842 171.905C42.196 171.795 41.0654 171.342 40.1309 170.599C39.1964 169.857 38.4986 168.859 38.1229 167.726L38.0274 167.44L38.0172 167.417C37.2256 165.194 35.9381 163.179 34.2523 161.528C32.5666 159.876 30.5268 158.629 28.2877 157.883L28.207 157.857C27.1098 157.48 26.1422 156.8 25.4169 155.894C24.6917 154.989 24.2385 153.896 24.1104 152.743L24.1013 152.64C23.8676 150.238 23.0765 147.924 21.791 145.882C20.5056 143.84 18.7612 142.126 16.6967 140.877L16.649 140.849C15.6417 140.232 14.835 139.336 14.3263 138.269C13.8177 137.203 13.629 136.012 13.7831 134.841L13.8217 134.526V134.506C14.0696 132.168 13.7837 129.804 12.9857 127.593C12.1878 125.382 10.8985 123.381 9.21493 121.74L9.1797 121.707C8.32573 120.881 7.7311 119.825 7.46871 118.666C7.20631 117.508 7.28754 116.298 7.70243 115.185C8.54343 112.927 8.84394 110.503 8.57991 108.108C8.31588 105.713 7.49465 103.413 6.18198 101.392L6.1547 101.349C5.5051 100.354 5.15918 99.192 5.15918 98.004C5.15918 96.816 5.5051 95.6537 6.1547 94.6591L6.18084 94.6205C7.48827 92.5971 8.30691 90.2973 8.57199 87.9029C8.83707 85.5085 8.54131 83.0853 7.70811 80.825C7.45195 80.1442 7.31993 79.4229 7.31834 78.6954C7.32 77.874 7.48628 77.0612 7.80735 76.3051C8.12842 75.549 8.59776 74.8649 9.18766 74.2932L9.2047 74.2761C10.9036 72.6228 12.2016 70.6025 12.9991 68.37C13.7966 66.1376 14.0726 63.7522 13.8058 61.3966L13.782 61.192C13.6267 60.0172 13.8149 58.8226 14.3239 57.7524C14.8328 56.6822 15.6408 55.7823 16.6502 55.1614L16.6842 55.1409C18.7347 53.9005 20.4703 52.2024 21.7553 50.1796C23.0403 48.1567 23.8397 45.8639 24.0911 43.4807L24.1013 43.3909C24.2101 42.202 24.6634 41.0707 25.4056 40.1356C26.1477 39.2004 27.1466 38.5021 28.2797 38.1261L28.6206 38.0125L28.6479 37.9989C30.8576 37.2011 32.8579 35.9133 34.4987 34.2319C36.1395 32.5506 37.3782 30.5194 38.1217 28.2909L38.1524 28.1932C38.5309 27.0987 39.2124 26.1342 40.1177 25.4119C41.023 24.6897 42.1148 24.2395 43.2661 24.1136L43.3695 24.1034C45.7707 23.8699 48.0843 23.0792 50.1261 21.7941C52.168 20.5091 53.8817 18.7651 55.1308 16.7011L55.1695 16.633C55.7184 15.7473 56.4841 15.0163 57.3942 14.5091C58.3043 14.0019 59.3287 13.7351 60.3706 13.7341C60.6366 13.734 60.9024 13.7514 61.1661 13.7864L61.4808 13.825H61.5013C62.0526 13.8854 62.6069 13.9157 63.1615 13.9159C65.2296 13.912 67.2761 13.4954 69.1812 12.6905C71.0862 11.8856 72.8115 10.7086 74.2558 9.22841L74.2899 9.19318C74.8613 8.60267 75.5453 8.13269 76.3014 7.81103C77.0576 7.48937 77.8705 7.32256 78.6922 7.32045C79.4197 7.31987 80.1414 7.44997 80.8229 7.70455C83.0803 8.5446 85.503 8.84463 87.8971 8.58061C90.2912 8.31659 92.5903 7.49586 94.6104 6.18409L94.6536 6.15568C95.6482 5.50608 96.8105 5.16016 97.9985 5.16016C99.1864 5.16016 100.349 5.50608 101.343 6.15568L101.39 6.18636C103.412 7.49402 105.71 8.31248 108.104 8.5768C110.497 8.84112 112.919 8.54403 115.177 7.70909C116.293 7.29388 117.505 7.21324 118.665 7.47708C119.825 7.74091 120.883 8.33774 121.709 9.19432L121.735 9.22159C123.18 10.703 124.907 11.881 126.813 12.6863C128.719 13.4916 130.767 13.9081 132.837 13.9114C133.428 13.911 134.019 13.8765 134.606 13.808L134.81 13.7841C135.083 13.7484 135.357 13.7302 135.632 13.7295C136.677 13.734 137.704 14.0047 138.615 14.5161C139.527 15.0274 140.293 15.7626 140.841 16.6523L140.864 16.6898C142.104 18.7388 143.801 20.4733 145.823 21.7576C147.844 23.0419 150.135 23.8413 152.517 24.0932L152.618 24.1034C153.806 24.2137 154.935 24.6677 155.869 25.4097C156.803 26.1518 157.5 27.1499 157.875 28.2818L157.989 28.6227L157.999 28.6432C158.795 30.8557 160.082 32.8588 161.764 34.5016C163.447 36.1444 165.48 37.3841 167.71 38.1273L167.794 38.1534C168.891 38.5305 169.858 39.2113 170.582 40.1167C171.306 41.0221 171.758 42.1146 171.885 43.267L171.894 43.3705C172.128 45.7725 172.919 48.0869 174.204 50.1293C175.49 52.1718 177.234 53.8859 179.299 55.1352L179.358 55.1705C180.363 55.7879 181.168 56.6832 181.674 57.7483C182.181 58.8133 182.369 60.0023 182.214 61.1716L182.174 61.4864V61.5068C181.927 63.8419 182.212 66.2027 183.008 68.4118C183.804 70.6209 185.091 72.6208 186.771 74.2614L186.809 74.2989C187.664 75.1254 188.259 76.1833 188.521 77.3428C188.784 78.5024 188.702 79.7133 188.287 80.8273C187.449 83.0849 187.151 85.5072 187.417 87.9005C187.683 90.2938 188.505 92.5917 189.818 94.6102L189.849 94.6602C190.49 95.643 190.835 96.7892 190.842 97.9624C190.85 99.1356 190.52 100.286 189.892 101.277L189.847 101.348L189.8 101.423C188.499 103.442 187.686 105.736 187.425 108.124C187.164 110.511 187.463 112.927 188.297 115.18C188.551 115.861 188.681 116.582 188.681 117.309C188.679 118.131 188.513 118.943 188.192 119.699C187.871 120.456 187.401 121.14 186.812 121.711L186.792 121.731C185.094 123.384 183.797 125.404 183 127.636C182.202 129.868 181.927 132.253 182.193 134.608L182.217 134.814C182.372 135.986 182.186 137.178 181.679 138.246C181.173 139.315 180.369 140.214 179.364 140.836L179.332 140.855C177.281 142.095 175.544 143.792 174.257 145.814C172.97 147.837 172.168 150.129 171.914 152.512L171.901 152.626C171.791 153.813 171.337 154.942 170.595 155.874C169.853 156.807 168.856 157.503 167.724 157.877L167.437 157.973L167.414 157.984C165.191 158.776 163.177 160.063 161.525 161.749C159.873 163.434 158.627 165.474 157.881 167.712L157.857 167.788C157.481 168.886 156.801 169.854 155.895 170.581C154.99 171.307 153.897 171.761 152.743 171.89L152.64 171.899C150.238 172.132 147.924 172.923 145.882 174.209C143.84 175.494 142.126 177.239 140.876 179.303L140.838 179.369C140.289 180.255 139.523 180.986 138.613 181.494C137.703 182.001 136.679 182.268 135.637 182.269C135.371 182.269 135.105 182.252 134.841 182.218L134.531 182.177H134.505C132.17 181.925 129.809 182.207 127.6 183.002C125.391 183.798 123.392 185.086 121.755 186.769L121.717 186.808C121.576 186.956 121.427 187.096 121.271 187.228C120.443 187.931 119.442 188.401 118.372 188.588C117.302 188.775 116.202 188.674 115.184 188.294C112.926 187.455 110.503 187.156 108.109 187.421C105.714 187.686 103.415 188.508 101.396 189.82L101.362 189.841C100.362 190.495 99.1943 190.843 98.0002 190.843Z" fill="white"/>
<path d="M191.424 102.251L191.367 102.338L191.341 102.38C190.189 104.164 189.468 106.191 189.235 108.301C189.001 110.412 189.263 112.547 189.998 114.539C190.327 115.423 190.496 116.359 190.495 117.302C190.493 118.367 190.278 119.422 189.861 120.403C189.445 121.384 188.836 122.271 188.07 123.013L188.045 123.037C186.547 124.494 185.403 126.275 184.701 128.243C183.999 130.211 183.758 132.314 183.995 134.39L184.019 134.595C184.218 136.115 183.972 137.66 183.312 139.043C182.651 140.426 181.604 141.589 180.297 142.389L180.24 142.422C178.434 143.515 176.906 145.011 175.774 146.793C174.643 148.575 173.939 150.595 173.718 152.694L173.706 152.807C173.56 154.343 172.97 155.802 172.008 157.008C171.046 158.213 169.753 159.112 168.289 159.594L168.094 159.659H168.084C166.106 160.348 164.313 161.483 162.842 162.976C161.372 164.468 160.265 166.278 159.605 168.267L159.584 168.33C159.101 169.763 158.218 171.027 157.041 171.975C155.863 172.923 154.439 173.515 152.936 173.681L152.807 173.694C150.688 173.9 148.646 174.597 146.844 175.731C145.042 176.865 143.53 178.404 142.427 180.226L142.4 180.272C141.6 181.583 140.437 182.633 139.052 183.295C137.667 183.958 136.12 184.205 134.598 184.005L134.406 183.98H134.395C132.322 183.743 130.221 183.985 128.255 184.685C126.289 185.385 124.509 186.527 123.052 188.021L123.018 188.056C122.833 188.248 122.639 188.431 122.435 188.603L85.8261 152.009L84.5591 145.019L148.123 63.6211L191.424 102.251Z" fill="#EDEDED"/>
<path d="M85.8249 152.009L45.1987 111.382L58.9317 97.6495L83.2431 121.962L132.249 52.4336L148.123 63.6222L85.8249 152.009Z" fill="#8A0089"/>
</svg>
