<svg width="28" height="22" viewBox="0 0 28 22" fill="none" xmlns="http://www.w3.org/2000/svg">
<path d="M17.6652 14.4319C16.7077 15.024 14.1971 16.233 15.7262 17.7458C16.4732 18.4848 17.3051 19.0133 18.351 19.0133H24.3192C25.3652 19.0133 26.1971 18.4848 26.944 17.7458C28.4731 16.233 25.9626 15.024 25.005 14.4319C22.7597 13.0435 19.9106 13.0435 17.6652 14.4319Z" fill="#8A0089" stroke="#8A0089" stroke-width="0.865027" stroke-linecap="round" stroke-linejoin="round"/>
<path d="M24.615 7.29943C24.615 9.11086 23.1465 10.5793 21.3351 10.5793C19.5236 10.5793 18.0552 9.11086 18.0552 7.29943C18.0552 5.48799 19.5236 4.01953 21.3351 4.01953C23.1465 4.01953 24.615 5.48799 24.615 7.29943Z" fill="#8A0089" stroke="#8A0089" stroke-width="0.865027"/>
<path d="M3.76873 14.4319C2.81121 15.024 0.300644 16.233 1.82974 17.7458C2.5767 18.4848 3.40861 19.0133 4.45453 19.0133H10.4228C11.4687 19.0133 12.3006 18.4848 13.0475 17.7458C14.5766 16.233 12.0661 15.024 11.1086 14.4319C8.86319 13.0435 6.0141 13.0435 3.76873 14.4319Z" fill="#8A0089" stroke="#8A0089" stroke-width="0.865027" stroke-linecap="round" stroke-linejoin="round"/>
<path d="M10.7185 7.29943C10.7185 9.11086 9.25002 10.5793 7.43859 10.5793C5.62715 10.5793 4.15869 9.11086 4.15869 7.29943C4.15869 5.48799 5.62715 4.01953 7.43859 4.01953C9.25002 4.01953 10.7185 5.48799 10.7185 7.29943Z" fill="#8A0089" stroke="#8A0089" stroke-width="0.865027"/>
<path d="M10.067 15.1996C8.76996 16.0016 5.36916 17.6393 7.44047 19.6885C8.45229 20.6896 9.5792 21.4055 10.996 21.4055H19.0805C20.4973 21.4055 21.6243 20.6896 22.6361 19.6885C24.7074 17.6393 21.3066 16.0016 20.0095 15.1996C16.968 13.3189 13.1086 13.3189 10.067 15.1996Z" fill="#DDA63C" stroke="#DDA63C" stroke-width="1.17176" stroke-linecap="round" stroke-linejoin="round"/>
<path d="M19.4811 5.53668C19.4811 7.99045 17.4919 9.97962 15.0381 9.97962C12.5844 9.97962 10.5952 7.99045 10.5952 5.53668C10.5952 3.08292 12.5844 1.09375 15.0381 1.09375C17.4919 1.09375 19.4811 3.08292 19.4811 5.53668Z" fill="#DDA63C" stroke="#DDA63C" stroke-width="1.17176"/>
</svg>
